<svg width="241" height="60" viewBox="0 0 241 60" fill="none" xmlns="http://www.w3.org/2000/svg">
<g filter="url(#filter0_d_7510_415)">
<path d="M39.1852 20.4998L36.6719 20.4998C36.3419 20.4998 36.0151 20.5613 35.7101 20.6806C35.4053 20.8 35.1283 20.9749 34.8947 21.1954C34.6614 21.4161 34.4763 21.6779 34.35 21.9659C34.2237 22.2541 34.1587 22.563 34.1587 22.8749L34.1587 32.3756C34.1587 35.5251 32.8348 38.5455 30.4782 40.7726C28.1215 42.9996 24.9254 44.2508 21.5926 44.2508C19.9424 44.2508 18.3083 43.9436 16.7837 43.3469C15.2591 42.7501 13.8738 41.8753 12.707 40.7726C11.5401 39.6699 10.6145 38.3608 9.983 36.92C9.3515 35.4793 9.02649 33.9351 9.02651 32.3756L9.02651 22.8756C9.0266 22.5637 8.96167 22.2547 8.83542 21.9665C8.70916 21.6783 8.52405 21.4163 8.29067 21.1958C8.05726 20.9751 7.78017 20.8001 7.4752 20.6806C7.17024 20.5613 6.84337 20.4998 6.51325 20.4998L4 20.4998L4 32.3751C4 34.5583 4.45505 36.7201 5.33916 38.7372C6.22327 40.7542 7.51914 42.587 9.15276 44.1307C10.7864 45.6745 12.7258 46.8991 14.8602 47.7346C16.9946 48.57 19.2823 49 21.5926 49C26.2584 49 30.7332 47.2485 34.0324 44.1307C37.3316 41.0129 39.1852 36.7843 39.1852 32.3751L39.1852 20.4998Z" fill="url(#paint0_linear_7510_415)"/>
<path d="M21.5926 39.501C23.5922 39.501 25.5099 38.7503 26.9237 37.4142C28.3377 36.078 29.132 34.2658 29.132 32.3762L29.132 20.5001C29.132 19.2402 29.6616 18.0322 30.6042 17.1415C31.5469 16.2507 32.8254 15.7502 34.1585 15.7502L39.185 15.7502L39.185 11.0001L34.1587 11.0001C31.4926 11.0001 28.9356 12.0009 27.0502 13.7825C25.165 15.5642 24.1059 17.9806 24.1059 20.5001L24.1059 32.3758C24.1059 33.0057 23.841 33.6098 23.3698 34.0553C22.8984 34.5007 22.2592 34.7509 21.5926 34.7509C20.926 34.7509 20.2868 34.5007 19.8155 34.0553C19.3441 33.6098 19.0793 33.0057 19.0793 32.3758L19.0793 20.5001C19.0793 17.9806 18.0202 15.5642 16.1349 13.7825C14.2497 12.0009 11.6927 11.0001 9.02651 11.0001L4 11.0001L4 15.7509L9.02651 15.7509C10.3594 15.7509 11.6378 16.2512 12.5804 17.1418C13.523 18.0324 14.0526 19.2404 14.0528 20.5001L14.0528 32.3758C14.0528 33.3115 14.2478 34.2381 14.6267 35.1026C15.0056 35.9671 15.5609 36.7525 16.2611 37.4142C16.9612 38.0758 17.7924 38.6006 18.7072 38.9587C19.622 39.3167 20.6025 39.501 21.5926 39.501Z" fill="url(#paint1_linear_7510_415)"/>
</g>
<g filter="url(#filter1_d_7510_415)">
<path d="M80.886 36.946H70.322L68.574 42H62.988L72.526 15.4379H78.72L88.2581 42H82.634L80.886 36.946ZM79.442 32.69L75.604 21.594L71.766 32.69H79.442ZM110.557 20.948V42H105.199V39.34C104.515 40.252 103.616 40.974 102.501 41.506C101.412 42.0127 100.221 42.266 98.9292 42.266C97.2826 42.266 95.8259 41.924 94.5592 41.24C93.2926 40.5307 92.2919 39.5047 91.5572 38.162C90.8479 36.794 90.4932 35.1727 90.4932 33.298V20.948H95.8132V32.538C95.8132 34.21 96.2312 35.502 97.0672 36.414C97.9032 37.3007 99.0432 37.744 100.487 37.744C101.957 37.744 103.109 37.3007 103.945 36.414C104.781 35.502 105.199 34.21 105.199 32.538V20.948H110.557ZM120.86 25.318V35.502C120.86 36.2113 121.025 36.7307 121.354 37.06C121.709 37.364 122.292 37.516 123.102 37.516H125.572V42H122.228C117.744 42 115.502 39.8213 115.502 35.464V25.318H112.994V20.948H115.502V15.7419H120.86V20.948H125.572V25.318H120.86ZM137.607 42.342C135.58 42.342 133.756 41.8987 132.135 41.012C130.513 40.1 129.234 38.8207 128.297 37.174C127.385 35.5273 126.929 33.6273 126.929 31.474C126.929 29.3206 127.397 27.4206 128.335 25.774C129.297 24.1273 130.602 22.8606 132.249 21.974C133.895 21.062 135.732 20.606 137.759 20.606C139.785 20.606 141.622 21.062 143.269 21.974C144.915 22.8606 146.207 24.1273 147.145 25.774C148.107 27.4206 148.589 29.3206 148.589 31.474C148.589 33.6273 148.095 35.5273 147.107 37.174C146.144 38.8207 144.827 40.1 143.155 41.012C141.508 41.8987 139.659 42.342 137.607 42.342ZM137.607 37.706C138.569 37.706 139.469 37.478 140.305 37.022C141.166 36.5407 141.85 35.8313 142.357 34.894C142.863 33.9566 143.117 32.8166 143.117 31.474C143.117 29.4726 142.585 27.94 141.521 26.876C140.482 25.7866 139.203 25.242 137.683 25.242C136.163 25.242 134.883 25.7866 133.845 26.876C132.831 27.94 132.325 29.4726 132.325 31.474C132.325 33.4753 132.819 35.0207 133.807 36.11C134.82 37.174 136.087 37.706 137.607 37.706ZM156.671 37.782H165.411V42H151.351V15.4759H156.671V37.782ZM187.527 20.948V42H182.169V39.34C181.485 40.252 180.585 40.974 179.471 41.506C178.381 42.0127 177.191 42.266 175.899 42.266C174.252 42.266 172.795 41.924 171.529 41.24C170.262 40.5307 169.261 39.5047 168.527 38.162C167.817 36.794 167.463 35.1727 167.463 33.298V20.948H172.783V32.538C172.783 34.21 173.201 35.502 174.037 36.414C174.873 37.3007 176.013 37.744 177.457 37.744C178.926 37.744 180.079 37.3007 180.915 36.414C181.751 35.502 182.169 34.21 182.169 32.538V20.948H187.527ZM196.956 24.026C197.64 23.0126 198.577 22.1893 199.768 21.556C200.984 20.9226 202.364 20.606 203.91 20.606C205.708 20.606 207.33 21.0493 208.774 21.936C210.243 22.8226 211.396 24.0893 212.232 25.736C213.093 27.3573 213.524 29.2446 213.524 31.398C213.524 33.5513 213.093 35.464 212.232 37.136C211.396 38.7827 210.243 40.062 208.774 40.974C207.33 41.886 205.708 42.342 203.91 42.342C202.339 42.342 200.958 42.038 199.768 41.43C198.602 40.7967 197.665 39.986 196.956 38.998V42H191.636V13.8799H196.956V24.026ZM208.09 31.398C208.09 30.1313 207.824 29.042 207.292 28.13C206.785 27.1926 206.101 26.4833 205.24 26.002C204.404 25.5206 203.492 25.28 202.504 25.28C201.541 25.28 200.629 25.5333 199.768 26.04C198.932 26.5213 198.248 27.2306 197.716 28.168C197.209 29.1053 196.956 30.2073 196.956 31.474C196.956 32.7406 197.209 33.8426 197.716 34.78C198.248 35.7173 198.932 36.4393 199.768 36.946C200.629 37.4273 201.541 37.668 202.504 37.668C203.492 37.668 204.404 37.4147 205.24 36.908C206.101 36.4013 206.785 35.6793 207.292 34.742C207.824 33.8046 208.09 32.69 208.09 31.398ZM236.39 20.948L223.356 51.956H217.694L222.254 41.468L213.818 20.948H219.784L225.218 35.654L230.728 20.948H236.39Z" fill="#F54A48"/>
</g>
<defs>
<filter id="filter0_d_7510_415" x="0" y="11.0001" width="43.1852" height="45.9999" filterUnits="userSpaceOnUse" color-interpolation-filters="sRGB">
<feFlood flood-opacity="0" result="BackgroundImageFix"/>
<feColorMatrix in="SourceAlpha" type="matrix" values="0 0 0 0 0 0 0 0 0 0 0 0 0 0 0 0 0 0 127 0" result="hardAlpha"/>
<feOffset dy="4"/>
<feGaussianBlur stdDeviation="2"/>
<feComposite in2="hardAlpha" operator="out"/>
<feColorMatrix type="matrix" values="0 0 0 0 0 0 0 0 0 0 0 0 0 0 0 0 0 0 0.25 0"/>
<feBlend mode="normal" in2="BackgroundImageFix" result="effect1_dropShadow_7510_415"/>
<feBlend mode="normal" in="SourceGraphic" in2="effect1_dropShadow_7510_415" result="shape"/>
</filter>
<filter id="filter1_d_7510_415" x="58.988" y="13.8799" width="181.402" height="46.0762" filterUnits="userSpaceOnUse" color-interpolation-filters="sRGB">
<feFlood flood-opacity="0" result="BackgroundImageFix"/>
<feColorMatrix in="SourceAlpha" type="matrix" values="0 0 0 0 0 0 0 0 0 0 0 0 0 0 0 0 0 0 127 0" result="hardAlpha"/>
<feOffset dy="4"/>
<feGaussianBlur stdDeviation="2"/>
<feComposite in2="hardAlpha" operator="out"/>
<feColorMatrix type="matrix" values="0 0 0 0 0 0 0 0 0 0 0 0 0 0 0 0 0 0 0.25 0"/>
<feBlend mode="normal" in2="BackgroundImageFix" result="effect1_dropShadow_7510_415"/>
<feBlend mode="normal" in="SourceGraphic" in2="effect1_dropShadow_7510_415" result="shape"/>
</filter>
<linearGradient id="paint0_linear_7510_415" x1="21.5926" y1="44.6965" x2="21.5926" y2="8.1307" gradientUnits="userSpaceOnUse">
<stop stop-color="#F54A48"/>
<stop offset="1" stop-color="#FA982F"/>
</linearGradient>
<linearGradient id="paint1_linear_7510_415" x1="21.5925" y1="44.7166" x2="21.5925" y2="8.12149" gradientUnits="userSpaceOnUse">
<stop stop-color="#F54A48"/>
<stop offset="1" stop-color="#FA982F"/>
</linearGradient>
</defs>
</svg>
